<?xml version="1.0" encoding="UTF-8" standalone="no"?>
<svg
   width="64mm"
   height="64mm"
   viewBox="0 0 63.999981 64"
   version="1.1"
   id="svg"
   xmlns="http://www.w3.org/2000/svg"
   xmlns:svg="http://www.w3.org/2000/svg">
  <title
     id="logo">sinuhe.dev/logo</title>
  <defs
     id="defs" />
  <g
     id="layer1"
     style="display:none">
    <rect
       style="opacity:1;fill:#000000;fill-opacity:1;stroke:none;stroke-width:0.183199;stroke-linecap:square;stroke-linejoin:round;stroke-miterlimit:4;stroke-dasharray:none;stroke-opacity:1;paint-order:fill markers stroke"
       id="rect4575"
       width="68.329857"
       height="67.899437"
       x="-0.10760616"
       y="0.15671897" />
  </g>
  <g
     id="layer6"
     style="display:inline"
     transform="translate(0,-67.73333)">
    <ellipse
       style="opacity:1;fill:#000000;fill-opacity:1;stroke:none;stroke-width:0.733511;stroke-linecap:square;stroke-linejoin:round;stroke-miterlimit:4;stroke-dasharray:none;stroke-opacity:1;paint-order:fill markers stroke"
       id="path1043"
       cx="32.12582"
       cy="99.992744"
       rx="31.071707"
       ry="31.177364" />
  </g>
  <g
     id="layer5"
     style="display:inline"
     transform="translate(0,-67.73333)">
    <g
       id="g4700"
       style="display:inline;opacity:1;fill:#b21cbe;fill-opacity:1;stroke:#000000;stroke-width:1.04693;stroke-linecap:square;stroke-linejoin:round;stroke-miterlimit:1;stroke-dasharray:none;stroke-opacity:1">
      <path
         id="path4702"
         style="fill:#353564;fill-rule:evenodd;stroke:none;stroke-width:3.31004;stroke-linejoin:round"
         d="m 30.832208,99.306623 v 4.743067 l 4.96555,1.50109 v -4.43205 z"
         points="30.832208,104.04969 35.797758,105.55078 35.797758,101.11873 30.832208,99.306623 " />
      <path
         id="path4712"
         style="fill:#e9e9ff;fill-rule:evenodd;stroke:none;stroke-width:3.31004;stroke-linejoin:round"
         d="m 35.797758,101.11873 3.26925,-2.708535 v 4.896925 l -3.26925,2.24366 z"
         points="39.067008,98.410195 39.067008,103.30712 35.797758,105.55078 35.797758,101.11873 " />
      <path
         id="path4704"
         style="fill:#4d4d9f;fill-rule:evenodd;stroke:none;stroke-width:3.31004;stroke-linejoin:round"
         d="m 30.832208,99.306623 2.963096,-3.125021 5.271704,2.228593 -3.26925,2.708535 z"
         points="33.795304,96.181602 39.067008,98.410195 35.797758,101.11873 30.832208,99.306623 " />
      <path
         id="path4710"
         style="fill:#1c6fbe;fill-opacity:0.850847;fill-rule:evenodd;stroke:none;stroke-width:3.31004;stroke-linejoin:round"
         d="m 30.832208,104.04969 2.963096,-2.58867 5.271704,1.8461 -3.26925,2.24366 z"
         points="33.795304,101.46102 39.067008,103.30712 35.797758,105.55078 30.832208,104.04969 " />
      <path
         id="path4708"
         style="fill:#1c6fbe;fill-opacity:0.657627;fill-rule:evenodd;stroke:none;stroke-width:3.31004;stroke-linejoin:round"
         d="m 33.795304,96.181602 v 5.279418 l 5.271704,1.8461 v -4.896925 z"
         points="33.795304,101.46102 39.067008,103.30712 39.067008,98.410195 33.795304,96.181602 " />
      <path
         id="path4706"
         style="fill:#1c6fbe;fill-opacity:0.535593;fill-rule:evenodd;stroke:none;stroke-width:3.31004;stroke-linejoin:round"
         d="m 30.832208,99.306623 2.963096,-3.125021 v 5.279418 l -2.963096,2.58867 z"
         points="33.795304,96.181602 33.795304,101.46102 30.832208,104.04969 30.832208,99.306623 " />
    </g>
    <path
       style="fill:#1c6fbe;fill-opacity:1;stroke:none;stroke-width:0.253318;stroke-linecap:butt;stroke-linejoin:miter;stroke-miterlimit:4;stroke-dasharray:none;stroke-opacity:1;paint-order:fill markers stroke"
       d="m 11.165395,82.054897 48.085834,16.788915 -1.255039,3.313058 z"
       id="path896" />
    <path
       style="fill:#1c6fbe;fill-opacity:1;stroke:none;stroke-width:0.264583px;stroke-linecap:butt;stroke-linejoin:miter;stroke-opacity:1"
       d="m 32.028836,45.114235 18.106422,22.683955 -1.711567,-0.545593 z"
       id="path927"
       transform="matrix(0.95591558,0,0,0.95591558,-19.451471,38.9295)" />
    <path
       style="fill:#1c6fbe;fill-opacity:1;stroke:none;stroke-width:0.264583px;stroke-linecap:butt;stroke-linejoin:miter;stroke-opacity:1"
       d="m 31.523833,70.837808 -17.088483,18.792702 0.125878,-1.618829 z"
       id="path946"
       transform="matrix(-0.9346334,0,0,-0.9854517,39.218821,189.98433)" />
    <path
       style="fill:#1c6fbe;fill-opacity:1;stroke:none;stroke-width:0.264583px;stroke-linecap:butt;stroke-linejoin:miter;stroke-opacity:1"
       d="m -0.57636767,103.02518 46.59500667,-19.6116 -2.095993,2.003079 z"
       id="path966"
       transform="matrix(0.95591558,0,0,0.95591558,10.293548,21.654226)" />
    <path
       style="display:inline;fill:#1c6fbe;fill-opacity:1;stroke:none;stroke-width:0.264583px;stroke-linecap:butt;stroke-linejoin:miter;stroke-opacity:1"
       d="m 31.526079,70.834722 -16.771302,18.447499 0.107264,-1.598211 z"
       id="path946-9"
       transform="matrix(-0.9346334,0,0,-0.9854517,41.337946,191.74435)" />
    <path
       style="display:inline;fill:#1c6fbe;fill-opacity:1;stroke:none;stroke-width:0.264583px;stroke-linecap:butt;stroke-linejoin:miter;stroke-opacity:1"
       d="m -0.52687485,103.06681 48.61219685,-19.843049 -2.234064,1.992464 z"
       id="path966-2"
       transform="matrix(0.95591558,0,0,0.95591558,12.41267,23.41428)" />
  </g>
</svg>
