<?xml version="1.0" encoding="UTF-8" standalone="no"?>
<svg
   aria-hidden="true"
   width="256"
   height="256"
   viewBox="0 0 48 48"
   fill="none"
   color="#ffffff"
   stroke="currentColor"
   stroke-width="1"
   stroke-linecap="round"
   stroke-linejoin="round"
   version="1.1"
   id="icons"
   xmlns="http://www.w3.org/2000/svg"
   xmlns:svg="http://www.w3.org/2000/svg">
  <defs
     id="defs" />
  <g
     id="globe"
     style="display:none">
    <circle
       cx="23.960287"
       cy="23.914597"
       r="18.232321"
       id="circle1" />
    <line
       x1="6"
       y1="24"
       x2="42"
       y2="24"
       id="line1" />
    <path
       d="m 23.9603,5.6822471 c 4.4192,4.9926549 6.9306,11.4718789 7.0671,18.2323589 -0.1365,6.760478 -2.6479,13.23962 -7.0671,18.232339 -4.4193,-4.992719 -6.9307,-11.471861 -7.0672,-18.232339 0.1365,-6.76048 2.6479,-13.239704 7.0672,-18.2323589 z"
       id="path1" />
  </g>
  <g
     id="camera"
     style="display:none">
    <path
       d="m 44.2234,35.0688 c 0,1.9822 -1.6079,3.5891 -3.5913,3.5891 h -32.32145 c -1.98338,0 -3.59123,-1.6069 -3.59125,-3.5891 v -19.7405 c 0,-1.9822 1.60786,-3.5891 3.59125,-3.5891 h 7.18255 l 3.5913,-5.38381 h 10.7738 l 3.5913,5.38381 h 7.1825 c 1.9834,0 3.5913,1.6069 3.5913,3.5891 z"
       id="path2" />
    <circle
       cx="24.709818"
       cy="23.41984"
       r="5.5424304"
       id="circle2" />
  </g>
  <g
     id="video"
     style="display:none">
    <polygon
       points="45.444025,13.035503 31.653955,23.006053 45.444025,32.976603 "
       id="polygon35" />
    <rect
       x="2.1038051"
       y="9.0472832"
       width="29.55015"
       height="27.91754"
       rx="1.9999979"
       ry="1.9999982"
       id="rect35" />
  </g>
  <g
     id="exit"
     style="display:none">
    <path
       id="solid"
       d="m 12,3.4 c -6.2,3.8 -10.2,10.6 -10.2,18.6 0,13 10.2,23 22.2,23 12,0 22,-10 22,-23 0,-8 -4,-14.8 -10,-18.6" />
    <path
       id="animation"
       d="m 12,3.4 c -6.2,3.8 -10.2,10.6 -10.2,18.6 0,13 10.2,23 22.2,23 12,0 22,-10 22,-23 0,-8 -4,-14.8 -10,-18.6" />
    <g
       id="arrow">
      <line
         id="left"
         x1="24"
         y1="25"
         x2="10"
         y2="14" />
      <line
         id="center"
         x1="24"
         y1="1.3"
         x2="24"
         y2="25" />
      <line
         id="right"
         x1="24"
         y1="25"
         x2="35"
         y2="14" />
    </g>
  </g>
</svg>
