<svg xmlns="http://www.w3.org/2000/svg" width="256" height="256" viewBox="0 0 48 48">
   <title id="title">js</title>
   <defs id="defs" />
   <path d="m 6.9596e-8,0 h 50.155103930404003 v 48 h -50.155103930404003 z" fill="#f7df1e" id="path1"
      style="stroke-width:1" />
   <path
      d="m 14.776102,40.11225 3.673125,-2.223 c 0.70875,1.256438 1.353375,2.319562 2.899688,2.319562 1.482186,0 2.416875,-0.57975 2.416875,-2.835 v -15.337125 h 4.510687 v 15.400875 c 0,4.671937 -2.738625,6.798562 -6.73425,6.798562 -3.608437,0 -5.703001,-1.868812 -6.766313,-4.124249 m 15.950625,-0.483 3.67275,-2.126438 c 0.966938,1.578938 2.223563,2.738813 4.446562,2.738813 1.869189,0 3.060938,-0.934501 3.060938,-2.223375 0,-1.5465 -1.224375,-2.094376 -3.286499,-2.99625 l -1.127439,-0.48375 c -3.254437,-1.385062 -5.413124,-3.125063 -5.413124,-6.798188 0,-3.38325 2.577562,-5.961 6.605249,-5.961 2.867626,0 4.929751,0.999001 6.411751,3.608813 l -3.51225,2.255625 c -0.773438,-1.385438 -1.610813,-1.933125 -2.899688,-1.933125 -1.321124,0 -2.158875,0.83775 -2.158875,1.933125 0,1.353187 0.837751,1.90125 2.770875,2.739 l 1.127625,0.483187 c 3.834375,1.643438 5.993063,3.318751 5.993063,7.088251 0,4.060124 -3.18975,6.283124 -7.475063,6.283124 -4.188562,0 -6.895125,-1.997625 -8.216062,-4.607625"
      id="path2" style="stroke-width:1" />
</svg>